<?xml version="1.0" encoding="iso-8859-1"?>
<!-- Generator: Adobe Illustrator 19.0.0, SVG Export Plug-In . SVG Version: 6.00 Build 0)  -->
<svg version="1.1" id="Layer_1" xmlns="http://www.w3.org/2000/svg" xmlns:xlink="http://www.w3.org/1999/xlink" x="0px" y="0px"
	 viewBox="0 0 511.984 511.984" style="enable-background:new 0 0 511.984 511.984;" xml:space="preserve">
<path d="M231.54,199.541c-4.172,4.164-10.922,4.164-15.078,0c-4.172-4.171-4.172-10.921,0-15.085c4.156-4.172,10.906-4.172,15.078,0
	C235.71,188.619,235.71,195.369,231.54,199.541z"/>
<path style="fill:#A0D468;" d="M501.327,0H10.672C4.781,0,0.001,4.773,0.001,10.664v490.664c0,5.875,4.781,10.656,10.671,10.656
	h490.656c5.891,0,10.656-4.781,10.656-10.656V10.664C511.983,4.774,507.218,0,501.327,0z"/>
<polygon style="fill:#434A54;" points="108.09,511.984 370.831,511.984 511.983,448.892 511.983,330.521 "/>
<g>
	<polygon style="fill:#FFCE54;" points="381.581,0 404.579,51.483 448.673,150.159 511.983,121.871 511.983,10.664 501.327,0 	"/>
	<path style="fill:#FFCE54;" d="M10.672,0C4.781,0,0.001,4.773,0.001,10.664v60.334L161.932,0H10.672z"/>
</g>
<path style="fill:#ED5564;" d="M310.458,128.012c-20.422-20.64-47.326-32.007-75.794-32.007s-55.389,11.367-75.794,32.007
	c-20.203,20.437-31.327,47.115-31.327,75.115c0,30.765,14.843,52.975,33.655,81.084c15.484,23.154,34.733,51.951,51.045,94.465
	c2.219,6,9.359,15.969,22.421,15.969c12.984,0,20.155-9.453,22.358-15.047l0.031-0.109c16.375-43.045,35.717-72.076,51.248-95.402
	c18.703-28.093,33.482-50.28,33.482-80.959C341.784,175.127,330.661,148.449,310.458,128.012z"/>
<path style="fill:#E6E9ED;" d="M127.543,203.127c0,30.765,14.843,52.975,33.655,81.084c15.484,23.154,34.733,51.951,51.045,94.465
	c2.219,6,9.359,15.969,22.421,15.969c12.984,0,20.155-9.453,22.358-15.047l0.031-0.109c16.375-43.045,35.717-72.076,51.248-95.402
	c18.703-28.093,33.482-50.28,33.482-80.959c0-0.156,0-0.312,0-0.469h-214.24C127.543,202.814,127.543,202.971,127.543,203.127z"/>
<path style="fill:#434A54;" d="M127.543,203.127c0,3.507,0.203,6.898,0.562,10.203h213.119c0.357-3.305,0.561-6.695,0.561-10.203
	c0-3.734-0.203-7.453-0.592-11.132H128.137C127.745,195.674,127.543,199.392,127.543,203.127z"/>
<path style="fill:#E6E9ED;" d="M266.663,203.127c0,17.679-14.328,31.999-31.999,31.999s-31.999-14.319-31.999-31.999
	c0-17.671,14.328-31.999,31.999-31.999C252.335,171.128,266.663,185.455,266.663,203.127z"/>
<path style="fill:#434A54;" d="M234.665,245.797c-23.531,0-42.671-19.14-42.671-42.67c0-23.523,19.14-42.663,42.671-42.663
	c23.53,0,42.671,19.14,42.671,42.663C277.335,226.658,258.194,245.797,234.665,245.797z M234.665,181.799
	c-11.766,0-21.328,9.57-21.328,21.328c0,11.765,9.562,21.335,21.328,21.335c11.765,0,21.327-9.57,21.327-21.335
	C255.992,191.369,246.43,181.799,234.665,181.799z"/>
<path style="opacity:0.2;fill:#FFFFFF;enable-background:new    ;" d="M310.458,128.012c-20.422-20.64-47.326-32.007-75.794-32.007
	c-1.781,0-3.562,0.047-5.328,0.133c26.468,1.328,51.325,12.531,70.45,31.874c20.203,20.437,31.328,47.115,31.328,75.115
	c0,30.679-14.766,52.866-33.484,80.959c-15.531,23.326-34.857,52.357-51.232,95.402l-0.047,0.109
	c-1.875,4.766-7.359,12.328-16.968,14.469c1.641,0.375,3.391,0.578,5.281,0.578c12.984,0,20.155-9.453,22.358-15.047l0.031-0.109
	c16.375-43.045,35.717-72.076,51.248-95.402c18.703-28.093,33.482-50.28,33.482-80.959
	C341.784,175.127,330.661,148.449,310.458,128.012z"/>
<g>
</g>
<g>
</g>
<g>
</g>
<g>
</g>
<g>
</g>
<g>
</g>
<g>
</g>
<g>
</g>
<g>
</g>
<g>
</g>
<g>
</g>
<g>
</g>
<g>
</g>
<g>
</g>
<g>
</g>
</svg>
